<svg xmlns="http://www.w3.org/2000/svg" viewBox="0 0 256 256" width="256" height="256">
  <defs>
    <linearGradient id="bg" x1="0%" y1="0%" x2="100%" y2="100%">
      <stop offset="0%" style="stop-color:#667EEA"/>
      <stop offset="100%" style="stop-color:#764BA2"/>
    </linearGradient>
    <linearGradient id="paper" x1="0%" y1="0%" x2="0%" y2="100%">
      <stop offset="0%" style="stop-color:#FFF9C4"/>
      <stop offset="100%" style="stop-color:#FFECB3"/>
    </linearGradient>
  </defs>
  <!-- Background circle -->
  <rect x="0" y="0" width="256" height="256" rx="48" fill="url(#bg)"/>
  <!-- Sticky note paper -->
  <path d="M48 64 L176 64 Q192 64 192 80 L192 208 Q192 224 176 224 L80 224 L48 192 L48 64 Z" fill="url(#paper)" transform="rotate(-5 120 144)"/>
  <!-- Lines on paper -->
  <line x1="64" y1="100" x2="160" y2="90" stroke="#E0E0E0" stroke-width="3" transform="rotate(-5 120 144)"/>
  <line x1="64" y1="130" x2="140" y2="120" stroke="#E0E0E0" stroke-width="3" transform="rotate(-5 120 144)"/>
  <line x1="64" y1="160" x2="120" y2="150" stroke="#E0E0E0" stroke-width="3" transform="rotate(-5 120 144)"/>
  <!-- Pin/needle -->
  <circle cx="140" cy="90" r="12" fill="#E74C3C"/>
  <circle cx="140" cy="90" r="6" fill="#C0392B"/>
  <circle cx="138" cy="88" r="2" fill="white" opacity="0.6"/>
</svg>